<?xml version="1.0" encoding="iso-8859-1"?>
<!-- Generator: Adobe Illustrator 19.0.0, SVG Export Plug-In . SVG Version: 6.00 Build 0)  -->
<svg version="1.1" id="Layer_1" xmlns="http://www.w3.org/2000/svg" xmlns:xlink="http://www.w3.org/1999/xlink" x="0px" y="0px"
	 viewBox="0 0 295.239 295.239" style="enable-background:new 0 0 295.239 295.239;" xml:space="preserve">
<g>
	<g>
		<g>
			<path d="M19.047,142.857h5.005c2.39,40.833,35.114,73.557,75.948,75.948v5.005h9.524v-5.005
				c40.833-2.39,73.557-35.114,75.948-75.948h5.005v-9.524h-5.005c-2.391-40.834-35.115-73.558-75.948-75.948V52.38H100v5.005
				c-40.833,2.39-73.557,35.114-75.948,75.948h-5.005V142.857z M33.576,133.333C35.938,97.747,64.419,69.271,100,66.909v23.567
				h9.524V66.909c35.581,2.362,64.062,30.838,66.424,66.424h-23.567v9.524h23.567c-2.362,35.585-30.843,64.061-66.424,66.423
				v-23.567H100v23.567c-35.581-2.362-64.062-30.838-66.424-66.424h23.567v-9.524H33.576z"/>
			<path d="M104.762,176.19c21.005,0,38.095-17.09,38.095-38.095S125.767,100,104.762,100s-38.095,17.09-38.095,38.095
				S83.757,176.19,104.762,176.19z M104.762,109.525c15.757,0,28.571,12.814,28.571,28.571c0,15.756-12.814,28.571-28.571,28.571
				c-15.757,0-28.571-12.814-28.571-28.571S89.005,109.525,104.762,109.525z"/>
			<circle cx="104.762" cy="119.048" r="4.762"/>
			<circle cx="104.762" cy="157.142" r="4.762"/>
			<circle cx="85.714" cy="138.094" r="4.762"/>
			<circle cx="123.81" cy="138.094" r="4.762"/>
			<circle cx="118.229" cy="124.629" r="4.762"/>
			<circle cx="91.292" cy="151.556" r="4.762"/>
			<circle cx="91.294" cy="124.626" r="4.762"/>
			<circle cx="118.226" cy="151.559" r="4.762"/>
			<path d="M295.238,23.81H200v9.524H23.81C10.681,33.333,0,44.013,0,57.143v161.905c0,13.129,10.681,23.81,23.81,23.81H200v9.524
				h19.048v19.048h57.143v-19.048h19.048L295.238,23.81L295.238,23.81z M200,233.333H23.81c-7.876,0-14.286-6.41-14.286-14.286
				V57.143c0-7.876,6.41-14.286,14.286-14.286H200V233.333z M209.524,52.38h9.524V200h-9.524V52.38z M209.524,242.857
				L209.524,242.857v-33.334h9.524v4.762c0,7.876,6.41,14.286,14.286,14.286v14.286h-14.286H209.524z M266.666,209.523v4.762
				c0,2.629-2.138,4.762-4.762,4.762h-28.571c-2.624,0-4.762-2.133-4.762-4.762v-4.762H266.666z M228.572,200V52.38h38.095V200
				H228.572z M252.381,228.57v14.286h-9.524V228.57H252.381z M266.667,261.904h-38.095v-9.524h4.762h28.571h4.762V261.904z
				 M285.714,242.857h-9.524h-14.286V228.57c7.876,0,14.286-6.41,14.286-14.286v-4.762h9.524V242.857z M285.714,200h-9.524V52.38
				h9.524V200z M285.714,42.857h-9.524h-4.762H223.81h-4.762h-9.524v-9.524h76.19V42.857z"/>
		</g>
	</g>
</g>
<g>
</g>
<g>
</g>
<g>
</g>
<g>
</g>
<g>
</g>
<g>
</g>
<g>
</g>
<g>
</g>
<g>
</g>
<g>
</g>
<g>
</g>
<g>
</g>
<g>
</g>
<g>
</g>
<g>
</g>
</svg>
